<?xml version="1.0" encoding="UTF-8" standalone="no"?>
<!-- Created with Inkscape (http://www.inkscape.org/) -->

<svg
   width="163.214mm"
   height="29.99972mm"
   viewBox="0 0 163.21401 29.99972"
   version="1.1"
   id="svg1"
   xml:space="preserve"
   inkscape:version="1.4.2 (f4327f4, 2025-05-13)"
   sodipodi:docname="logo.svg"
   xmlns:inkscape="http://www.inkscape.org/namespaces/inkscape"
   xmlns:sodipodi="http://sodipodi.sourceforge.net/DTD/sodipodi-0.dtd"
   xmlns="http://www.w3.org/2000/svg"
   xmlns:svg="http://www.w3.org/2000/svg"><sodipodi:namedview
     id="namedview1"
     pagecolor="#ffffff"
     bordercolor="#000000"
     borderopacity="0.25"
     inkscape:showpageshadow="2"
     inkscape:pageopacity="0.0"
     inkscape:pagecheckerboard="0"
     inkscape:deskcolor="#d1d1d1"
     inkscape:document-units="mm"
     inkscape:zoom="0.65134574"
     inkscape:cx="234.13065"
     inkscape:cy="290.93612"
     inkscape:window-width="1366"
     inkscape:window-height="697"
     inkscape:window-x="-8"
     inkscape:window-y="-8"
     inkscape:window-maximized="1"
     inkscape:current-layer="g1"
     showgrid="false" /><defs
     id="defs1" /><g
     inkscape:label="Capa 1"
     inkscape:groupmode="layer"
     id="layer1"><g
       id="g1"
       transform="translate(8.6170212,-67.212749)"><path
         id="rect3"
         style="fill:#b12166;fill-opacity:1;stroke:none;stroke-width:8.69235;paint-order:fill markers stroke"
         d="m -3.3362062,67.212766 c -2.925527,0 -5.280815,2.355288 -5.280815,5.280815 v 19.43809 c 0,2.925526 2.355288,5.280814 5.280815,5.280814 H 16.101884 c 2.925526,0 5.280814,-2.355288 5.280814,-5.280814 v -19.43809 c 0,-2.925527 -2.355288,-5.280815 -5.280814,-5.280815 z m 5.124235,4.999178 h 9.1875532 c 2.908554,0 5.406388,2.497834 5.406388,5.406388 v 9.187553 c 0,2.908555 -2.497834,5.405872 -5.406388,5.405872 H 1.7880288 c -2.908554,0 -5.405872,-2.497317 -5.405872,-5.405872 v -9.187553 c 0,-2.908554 2.497318,-5.406388 5.405872,-5.406388 z" /><g
         id="text1"
         style="font-weight:900;font-size:46.7485px;line-height:0.75;font-family:'Eurostile Round';-inkscape-font-specification:'Eurostile Round Heavy';fill:#3f1c66;stroke-width:16.5644;paint-order:fill markers stroke"
         transform="scale(0.99262497,1.0074298)"
         aria-label="Libris®"><path
           style="font-weight:bold;font-family:'Cormorant Unicase';-inkscape-font-specification:'Cormorant Unicase,  Bold'"
           d="m 35.227481,91.961245 q 0,1.215461 0.186994,1.776443 0.186994,0.514234 0.701227,0.701228 0.560982,0.186994 1.776443,0.186994 h 1.589449 q 3.646383,0 6.311048,-1.916689 2.664664,-1.963437 3.552886,-5.28258 0,-0.0935 0.186994,-0.0935 0.0935,0 0.186994,0.0935 0.140245,0.04675 0.140245,0.0935 -0.420736,4.628101 -0.420736,7.713502 0,0.373988 -0.186994,0.560982 -0.140246,0.140246 -0.514234,0.140246 H 26.672505 q -0.0935,0 -0.0935,-0.280491 0,-0.280491 0.0935,-0.280491 1.495952,0 2.150431,-0.233743 0.701228,-0.233742 0.93497,-0.888221 0.280491,-0.701228 0.280491,-2.103683 V 70.503683 q 0,-1.402455 -0.280491,-2.056934 -0.233742,-0.654479 -0.93497,-0.888221 -0.701227,-0.280491 -2.150431,-0.280491 -0.0935,0 -0.0935,-0.280491 0,-0.280491 0.0935,-0.280491 l 2.384174,0.04675 q 2.150431,0.0935 3.552886,0.0935 1.402455,0 3.552886,-0.0935 l 2.384173,-0.04675 q 0.140246,0 0.140246,0.280491 0,0.280491 -0.140246,0.280491 -1.449203,0 -2.150431,0.280491 -0.701227,0.233742 -0.93497,0.93497 -0.233742,0.654479 -0.233742,2.056934 z m 24.963702,0.186994 q 0,1.402455 0.233743,2.103683 0.233742,0.654479 0.841473,0.888221 0.60773,0.233743 1.963437,0.233743 0.0935,0 0.0935,0.280491 0,0.280491 -0.0935,0.280491 -1.449204,0 -2.243928,-0.04675 l -3.178899,-0.04675 -3.038652,0.04675 q -0.841473,0.04675 -2.337425,0.04675 -0.0935,0 -0.0935,-0.280491 0,-0.280491 0.0935,-0.280491 1.355706,0 1.963437,-0.233743 0.654479,-0.233742 0.888221,-0.888221 0.233743,-0.701228 0.233743,-2.103683 V 77.843198 q 0,-1.402455 -0.233743,-2.056934 -0.233742,-0.654479 -0.888221,-0.888222 -0.607731,-0.280491 -1.963437,-0.280491 -0.0935,0 -0.0935,-0.280491 0,-0.280491 0.0935,-0.280491 l 2.337425,0.04675 q 1.86994,0.0935 3.038652,0.0935 1.26221,0 3.225647,-0.0935 l 2.19718,-0.04675 q 0.0935,0 0.0935,0.280491 0,0.280491 -0.0935,0.280491 -1.308958,0 -1.963437,0.280491 -0.607731,0.280491 -0.841473,0.981719 -0.233743,0.654479 -0.233743,2.056934 z m 18.512383,-8.367981 q 4.300862,-0.04675 6.54479,1.402455 2.290676,1.402455 2.290676,4.113868 0,2.010185 -1.168712,3.552886 -1.168713,1.5427 -3.272395,2.430922 -2.056934,0.841473 -4.721599,0.841473 -1.262209,0 -3.038652,-0.140246 -0.654479,-0.04675 -1.636198,-0.0935 -0.93497,-0.04675 -2.056934,-0.04675 l -2.991904,0.04675 q -0.841473,0.04675 -2.337425,0.04675 -0.0935,0 -0.0935,-0.280491 0,-0.280491 0.0935,-0.280491 1.402455,0 2.010185,-0.233743 0.654479,-0.233742 0.841473,-0.888221 0.233743,-0.701228 0.233743,-2.103683 V 77.843198 q 0,-1.402455 -0.233743,-2.056934 -0.186994,-0.654479 -0.841473,-0.888222 -0.60773,-0.280491 -1.916688,-0.280491 -0.140246,0 -0.140246,-0.280491 0,-0.280491 0.140246,-0.280491 l 2.243928,0.04675 q 1.86994,0.0935 2.991904,0.0935 1.402455,0 2.945156,-0.140246 0.514233,-0.04675 1.5427,-0.0935 1.028467,-0.04675 1.776443,-0.04675 3.459389,0 5.376078,1.168712 1.963437,1.168713 1.963437,3.365893 0,2.056934 -1.823192,3.599634 -1.823191,1.542701 -5.235832,2.290677 z m -1.963437,-9.256204 q -1.121964,0 -1.682946,0.280491 -0.560982,0.233743 -0.794725,0.981719 -0.233742,0.701228 -0.233742,2.150431 v 6.030557 l -1.963438,-0.32724 q 1.58945,0.140246 4.06712,0.140246 1.682946,0 2.571168,-0.280491 0.93497,-0.32724 1.402455,-1.215461 0.467485,-0.93497 0.467485,-2.664665 0,-5.095587 -3.833377,-5.095587 z m 0.794724,20.849832 q 5.095587,0 5.095587,-4.955341 0,-5.703317 -7.059024,-5.703317 -2.056934,0 -3.506138,0.233742 l 1.963438,-0.60773 v 7.806999 q 0,1.776443 0.701227,2.524419 0.701228,0.701228 2.80491,0.701228 z m 24.075457,0 q 0.0935,0 0.0935,0.280491 0,0.280491 -0.0935,0.280491 -1.40245,0 -2.197176,-0.04675 l -3.178898,-0.04675 -3.038652,0.04675 q -0.841473,0.04675 -2.337425,0.04675 -0.0935,0 -0.0935,-0.280491 0,-0.280491 0.0935,-0.280491 1.308958,0 1.916688,-0.233743 0.607731,-0.233742 0.841473,-0.888221 0.233743,-0.701228 0.233743,-2.103683 V 77.843198 q 0,-1.402455 -0.233743,-2.056934 -0.186994,-0.654479 -0.794724,-0.888222 -0.607731,-0.280491 -1.86994,-0.280491 -0.140246,0 -0.140246,-0.280491 0,-0.280491 0.140246,-0.280491 l 2.290676,0.04675 q 1.86994,0.0935 2.991904,0.0935 0.888222,0 1.636198,-0.04675 0.747976,-0.04675 1.308958,-0.0935 1.542698,-0.140245 2.898408,-0.140245 3.64638,0 5.56307,1.168712 1.91669,1.168713 1.91669,3.365893 0,1.916688 -1.35571,3.552886 -1.30896,1.636197 -3.64638,2.617916 -2.29068,0.93497 -5.048839,0.93497 -1.495952,0 -2.571167,-0.186994 l -0.04675,-1.028467 q 1.168713,0.327239 2.945156,0.327239 2.664669,0 3.693129,-1.215461 1.02847,-1.262209 1.02847,-3.73988 0,-4.861844 -3.55289,-4.861844 -0.98172,0 -1.4492,0.233742 -0.467485,0.233743 -0.654479,0.888222 -0.186994,0.607731 -0.186994,1.963437 v 14.211544 q 0,1.449204 0.186994,2.103683 0.233742,0.654479 0.794724,0.888221 0.607735,0.233743 1.916685,0.233743 z m 14.30505,0 q 0.14024,0 0.14024,0.280491 0,0.280491 -0.14024,0.280491 h -7.66676 q -0.70123,0 -2.57117,-2.898407 -1.86994,-2.945156 -4.39436,-7.947245 l 3.73988,-0.981719 q 2.57117,4.347611 4.39436,6.778533 1.86994,2.430922 3.3659,3.459389 1.5427,1.028467 3.13215,1.028467 z m 8.55501,-3.225647 q 0,1.402455 0.23375,2.103683 0.23374,0.654479 0.84147,0.888221 0.60773,0.233743 1.96344,0.233743 0.0935,0 0.0935,0.280491 0,0.280491 -0.0935,0.280491 -1.44921,0 -2.24393,-0.04675 l -3.1789,-0.04675 -3.03865,0.04675 q -0.84148,0.04675 -2.33743,0.04675 -0.0935,0 -0.0935,-0.280491 0,-0.280491 0.0935,-0.280491 1.35571,0 1.96344,-0.233743 0.65448,-0.233742 0.88822,-0.888221 0.23374,-0.701228 0.23374,-2.103683 V 77.843198 q 0,-1.402455 -0.23374,-2.056934 -0.23374,-0.654479 -0.88822,-0.888222 -0.60773,-0.280491 -1.96344,-0.280491 -0.0935,0 -0.0935,-0.280491 0,-0.280491 0.0935,-0.280491 l 2.33743,0.04675 q 1.86994,0.0935 3.03865,0.0935 1.26221,0 3.22565,-0.0935 l 2.19718,-0.04675 q 0.0935,0 0.0935,0.280491 0,0.280491 -0.0935,0.280491 -1.30896,0 -1.96344,0.280491 -0.60773,0.280491 -0.84147,0.981719 -0.23375,0.654479 -0.23375,2.056934 z m 11.40661,-14.63228 q 0,1.308958 0.70123,2.290676 0.74798,0.93497 1.77644,1.636198 1.07522,0.654479 2.89841,1.589449 2.10368,1.121964 3.2724,1.916688 1.21546,0.747976 2.05693,1.963437 0.88822,1.215461 0.88822,2.898407 0,1.86994 -1.12196,3.412641 -1.07522,1.495952 -2.99191,2.384173 -1.91668,0.888222 -4.30086,0.888222 -2.15043,0 -4.20736,-0.560982 -2.01019,-0.514234 -2.80491,-1.168713 -0.37399,-0.233742 -0.37399,-0.981718 l -0.23374,-5.282581 q 0,-0.186994 0.23374,-0.233742 0.23374,-0.04675 0.32724,0.140245 1.77644,3.085401 3.59963,5.048838 1.82319,1.963437 4.16062,1.963437 1.40245,0 2.33742,-0.841473 0.93497,-0.841473 0.93497,-2.524419 0,-1.495952 -0.79472,-2.617916 -0.74798,-1.121964 -1.86994,-1.86994 -1.12196,-0.794724 -2.9919,-1.823191 -2.75817,-1.495952 -4.20737,-2.80491 -1.4492,-1.355707 -1.4492,-3.506138 0,-2.711413 2.38417,-4.300862 2.38417,-1.636198 5.75007,-1.636198 1.49595,0 3.13215,0.32724 1.63619,0.327239 2.61791,0.747976 0.42074,0.140245 0.56098,0.373988 0.14025,0.186994 0.14025,0.560982 v 4.441108 q 0,0.140245 -0.23374,0.233742 -0.23375,0.04675 -0.32724,-0.0935 -0.88822,-1.86994 -2.47767,-3.693131 -1.58945,-1.823192 -4.20737,-1.823192 -1.58945,0 -2.38417,0.841473 -0.79473,0.794725 -0.79473,2.103683 z"
           id="path1" /><path
           style="font-size:8.81944px;font-family:Arial;-inkscape-font-specification:'Arial Heavy'"
           d="m 155.74545,92.799833 q 0,0.882805 -0.44355,1.645032 -0.43925,0.762227 -1.20148,1.201476 -0.76223,0.43925 -1.64503,0.43925 -0.8785,0 -1.64073,-0.43925 -0.76222,-0.439249 -1.20578,-1.201476 -0.43925,-0.762227 -0.43925,-1.645032 0,-0.878499 0.43925,-1.640726 0.44356,-0.766534 1.20578,-1.205783 0.76223,-0.43925 1.64073,-0.43925 0.8828,0 1.64503,0.43925 0.76223,0.439249 1.20148,1.205783 0.44355,0.762227 0.44355,1.640726 z m -0.63734,0 q 0,-1.098124 -0.77945,-1.87327 -0.77515,-0.779453 -1.87327,-0.779453 -1.09813,0 -1.87758,0.779453 -0.77514,0.775146 -0.77514,1.87327 0,1.098123 0.77514,1.877576 0.77945,0.775146 1.87758,0.775146 1.09812,0 1.87327,-0.775146 0.77945,-0.779453 0.77945,-1.877576 z m -4.14272,-1.756998 h 1.57182 q 0.66749,0 0.96463,0.271301 0.30144,0.266995 0.30144,0.719163 0,0.353122 -0.22824,0.611504 -0.22823,0.258382 -0.71916,0.374654 0.2024,0.07751 0.29714,0.163642 0.1335,0.120579 0.27991,0.357429 0.009,0.01723 0.56844,1.016302 h -1.03352 q -0.50385,-1.003383 -0.6761,-1.19717 -0.17226,-0.198093 -0.34451,-0.198093 -0.0388,0 -0.10766,0.01292 v 1.382343 h -0.87419 z m 0.87419,1.490003 h 0.37896 q 0.37896,0 0.53399,-0.120578 0.15503,-0.124885 0.15503,-0.318672 0,-0.193786 -0.15073,-0.314364 -0.14641,-0.124885 -0.50384,-0.124885 h -0.41341 z"
           id="path2" /></g><path
         style="baseline-shift:baseline;display:inline;overflow:visible;vector-effect:none;fill:#b12166;paint-order:stroke markers fill;enable-background:accumulate;stop-color:#000000"
         d="m 1.7890588,77.212593 h 9.1875802 c 0.22504,0 0.40621,0.18117 0.40621,0.40621 v 9.18758 c 0,0.22504 -0.18117,0.40621 -0.40621,0.40621 H 1.7890588 c -0.22504,0 -0.40621,-0.18117 -0.40621,-0.40621 v -9.18758 c 0,-0.22504 0.18117,-0.40621 0.40621,-0.40621 z"
         id="path8" /></g></g></svg>
